<svg version="1.1" xmlns="http://www.w3.org/2000/svg" xmlns:xlink="http://www.w3.org/1999/xlink" width="153.625" height="175.57141" viewBox="0,0,153.625,175.57141"><defs><linearGradient x1="224.14516" y1="165.87283" x2="224.14516" y2="185.30719" gradientUnits="userSpaceOnUse" id="color-1"><stop offset="0" stop-color="#7390d3"/><stop offset="1" stop-color="#4e679f"/></linearGradient><linearGradient x1="256.14981" y1="165.87283" x2="256.14981" y2="185.30719" gradientUnits="userSpaceOnUse" id="color-2"><stop offset="0" stop-color="#7390d3"/><stop offset="1" stop-color="#4e679f"/></linearGradient><linearGradient x1="240" y1="92.2143" x2="240" y2="267.78572" gradientUnits="userSpaceOnUse" id="color-3"><stop offset="0" stop-color="#7491d4"/><stop offset="1" stop-color="#4e679f"/></linearGradient></defs><g transform="translate(-163.1875,-92.2143)"><g data-paper-data="{&quot;isPaintingLayer&quot;:true}" fill-rule="nonzero" stroke="none" stroke-linecap="butt" stroke-linejoin="miter" stroke-miterlimit="10" stroke-dasharray="" stroke-dashoffset="0" style="mix-blend-mode: normal"><path d="M264.97617,206.92797c0,0 -3.18499,-3.8786 -5.80977,-7.20551c11.53145,-3.23428 15.85848,-10.43302 15.85848,-10.43302c-3.62889,2.37811 -6.96785,4.09395 -10.04798,5.26922c-4.37998,1.81954 -8.66311,3.05488 -12.77728,3.81502c-8.40073,1.56179 -16.17345,1.18248 -22.79144,-0.04801c-4.99062,-0.93141 -9.3582,-2.35442 -12.90308,-3.78743c-2.01415,-0.77137 -4.18177,-1.77272 -6.45586,-3.02928c-0.28811,-0.15653 -0.5622,-0.30624 -0.8152,-0.45065c-0.1329,-0.07436 -0.25926,-0.14221 -0.3862,-0.22008c-1.56574,-0.89936 -2.33634,-1.54912 -2.33634,-1.54912c0,0 4.20202,6.99669 15.3681,10.29928c-2.64621,3.35535 -5.91334,7.33958 -5.91334,7.33958c-19.3937,-0.59501 -26.8237,-13.40692 -26.8237,-13.40692c0,-28.25357 12.639,-51.2096 12.639,-51.2096c12.6479,-9.51694 24.65154,-9.23329 24.65154,-9.23329l0.94044,1.12666c-15.84111,4.54405 -23.02479,11.51853 -23.02479,11.51853c0,0 1.8089,-1.15375 5.13423,-2.56938c9.42713,-4.14103 16.87468,-5.27076 19.94789,-5.56782c0.49212,-0.07049 0.97779,-0.14594 1.47686,-0.20985c5.39697,-0.6828 11.41702,-0.87443 17.78298,-0.15924c8.33816,0.94089 17.35162,3.45941 26.48222,8.44968c0,0 -6.95733,-6.539 -21.93498,-11.08305l1.26354,-1.50554c0,0 12.00969,-0.28365 24.65065,9.23329c0,0 12.64586,22.95604 12.64586,51.2096c0,0 -7.42912,12.81191 -26.82185,13.40692z" data-paper-data="{&quot;noHover&quot;:false,&quot;origItem&quot;:[&quot;Path&quot;,{&quot;applyMatrix&quot;:true,&quot;segments&quot;:[[[291.75257,193.50022],[0,0],[0,-28.25357]],[[279.11152,142.34055],[0,0],[-12.64096,-9.51694]],[254.48377,133.12489],[[253.25494,134.53666],[0,0],[14.97764,4.54405]],[[275.13202,145.69545],[0,0],[-9.13059,-4.99026]],[[248.67858,137.26556],[8.33816,0.94089],[-6.36595,-0.71519]],[[230.92183,137.42428],[5.39697,-0.6828],[-0.49907,0.06391]],[[229.44703,137.63348],[0.49212,-0.07049],[-3.07322,0.29707]],[[209.5208,143.18671],[9.42713,-4.14103],[-3.32532,1.41563]],[204.30729,145.69545],[[227.3564,134.15786],[-15.84111,4.54405],[0,0]],[226.4509,133.12489],[[201.82226,142.34055],[12.6479,-9.51694],[0,0]],[[189.18805,193.50022],[0,-28.25357],[0,0]],[[215.99394,206.88631],[-19.3937,-0.59501],[0,0]],[[221.85303,199.63073],[-2.64621,3.35535],[-11.16608,-3.30258]],[206.46805,189.31381],[[208.88962,190.81073],[-1.56574,-0.89936],[0.12694,0.07787]],[[209.27553,191.03037],[-0.1329,-0.07436],[0.253,0.14441]],[[210.09009,191.4801],[-0.28811,-0.15653],[2.27409,1.25656]],[[216.54006,194.50247],[-2.01415,-0.77137],[3.54487,1.43301]],[[229.42639,198.27909],[-4.99062,-0.93141],[6.61799,1.23049]],[[252.18053,198.32747],[-8.40073,1.56179],[4.11417,-0.76014]],[[264.94159,194.52327],[-4.37998,1.81954],[3.08013,-1.17527]],[[275.06855,189.31381],[-3.62889,2.37811],[0,0]],[[259.19303,199.76478],[11.53145,-3.23428],[2.62478,3.32691]],[[264.94853,206.88631],[0,0],[19.39274,-0.59501]]],&quot;closed&quot;:true,&quot;fillColor&quot;:[0,0,0,1]}]}" fill="#ffffff" stroke-width="0.5"/><path d="M233.13244,175.58869c0,5.36863 -4.02163,9.7185 -8.98381,9.7185c-4.9692,0 -8.99075,-4.34987 -8.99075,-9.7185c0,-5.3652 4.02155,-9.71586 8.99075,-9.71586c4.96219,0 8.98381,4.35066 8.98381,9.71586z" fill="url(#color-1)" stroke-width="1"/><path d="M265.13709,175.58869c0,5.36863 -4.02156,9.7185 -8.99067,9.7185c-4.96226,0 -8.98389,-4.34987 -8.98389,-9.7185c0,-5.3652 4.02164,-9.71586 8.98389,-9.71586c4.96911,0 8.99067,4.35066 8.99067,9.71586z" fill="url(#color-2)" stroke-width="1"/><path d="M316.8125,110.33511v109.88024v8.81219v38.75818l-18.92986,-16.57807l-10.58731,-9.84209l-11.21585,-10.43034l4.65703,16.21314h-99.58128c-9.92453,0 -17.96773,-8.11175 -17.96773,-18.12082v-118.69242c0,-10.00907 8.04319,-18.12081 17.96773,-18.12081h117.68956c9.92444,0 17.96771,8.11175 17.96771,18.12081zM291.75257,193.50023c0,-28.25357 -12.64105,-51.15967 -12.64105,-51.15967c-12.64096,-9.51694 -24.62775,-9.21565 -24.62775,-9.21565l-1.22883,1.41177c14.97764,4.54405 21.87709,11.15879 21.87709,11.15879c-9.13059,-4.99026 -18.11528,-7.489 -26.45344,-8.42989c-6.36595,-0.71519 -12.35978,-0.52408 -17.75675,0.15872c-0.49907,0.06391 -0.98268,0.1387 -1.4748,0.20919c-3.07322,0.29707 -10.49909,1.41221 -19.92622,5.55324c-3.32532,1.41563 -5.21351,2.50874 -5.21351,2.50874c0,0 7.208,-6.99354 23.04911,-11.53759l-0.9055,-1.03297c0,0 -11.98074,-0.30129 -24.62864,9.21565c0,0 -12.63421,22.9061 -12.63421,51.15967c0,0 7.41219,12.79108 26.80589,13.38609c0,0 3.21288,-3.90023 5.85908,-7.25558c-11.16608,-3.30258 -15.38497,-10.31692 -15.38497,-10.31692c0,0 0.85583,0.59755 2.42157,1.49692c0.12694,0.07787 0.253,0.14528 0.3859,0.21964c0.253,0.14441 0.52646,0.2932 0.81457,0.44973c2.27409,1.25656 4.43581,2.251 6.44996,3.02237c3.54487,1.43301 7.89571,2.84522 12.88633,3.77662c6.61799,1.23049 14.35341,1.61017 22.75414,0.04837c4.11417,-0.76014 8.38108,-1.98466 12.76106,-3.8042c3.08013,-1.17527 6.49807,-2.83135 10.12696,-5.20946c0,0 -4.34407,7.21669 -15.87552,10.45097c2.62478,3.32691 5.75549,7.12153 5.75549,7.12153c19.39274,-0.59501 26.80404,-13.38609 26.80404,-13.38609z" fill="url(#color-3)" stroke-width="1"/></g></g></svg>